<svg xmlns="http://www.w3.org/2000/svg" width="408.517" height="73.841" viewBox="0 0 408.517 73.841">
  <g id="_7_SHANBEH" data-name="7 SHANBEH" transform="translate(-92.422 241.793)">
    <g id="Group_184" data-name="Group 184" transform="translate(86.864 -251)">
      <path id="Path_93" data-name="Path 93" d="M10.693,82.256q1.248-2.561,4.038-9.308t5.385-13.379Q22.709,52.937,23.3,50.7a3.721,3.721,0,0,1,3.135-1.461,12.406,12.406,0,0,1,4.235.657,11.271,11.271,0,0,1,3.234,1.56A199.785,199.785,0,0,1,26.978,70.65q-4.1,9.833-6.764,13.806a9.449,9.449,0,0,1-4.859-.181A13.014,13.014,0,0,1,10.693,82.256Zm29.6-11.721a1.167,1.167,0,0,1-.164-.066,35.123,35.123,0,0,1-.3-6.895q.066-5.615.377-12.641t.739-12.509a31.949,31.949,0,0,1,.854-6.468,11.008,11.008,0,0,1,5.138-.69,16.49,16.49,0,0,1,4.285,1.051,46.194,46.194,0,0,1,.279,8.7q-.181,6.469-.624,13.856t-.771,12.378q-.165,2.1-.23,3.284a14.919,14.919,0,0,1-5.2.722,25.561,25.561,0,0,1-4.384-.722Zm9.065,11.721q1.248-2.561,4.038-9.308T58.78,59.568q2.593-6.631,3.185-8.865A3.721,3.721,0,0,1,65.1,49.242a12.406,12.406,0,0,1,4.235.657,11.272,11.272,0,0,1,3.234,1.56A199.785,199.785,0,0,1,65.642,70.65q-4.1,9.833-6.764,13.806a9.449,9.449,0,0,1-4.859-.181A13.014,13.014,0,0,1,49.356,82.256ZM67.48,31.923a6.375,6.375,0,0,1,4.613,1.871,6.266,6.266,0,0,1,0,9.029,6.662,6.662,0,0,1-9.259,0,6.266,6.266,0,0,1,0-9.029,6.414,6.414,0,0,1,4.646-1.871ZM92.614,71.289H91.563a20.277,20.277,0,0,1-5.122-.657A12.691,12.691,0,0,1,80.58,67a16.224,16.224,0,0,1-3.661-7.469A49.937,49.937,0,0,1,76.2,50.08q0-.493.033-3.989a94.585,94.585,0,0,1,.755-9.62,34.2,34.2,0,0,1,1.9-8.849,11.269,11.269,0,0,1,4.2-.854q.525,0,2.1.18a20.594,20.594,0,0,1,3.382.706q-.788,8.077-1.182,12.608-.624,7.355-.624,12.017,0,9.653,2.43,12.871a3.934,3.934,0,0,0,3.218,1.806q3.152,0,4.662-5.155a42.853,42.853,0,0,0,1.412-9.554l.132-2a25.887,25.887,0,0,1,.2-2.725,15.177,15.177,0,0,1,4.564-.821q5.482,0,5.483,5.582a14.988,14.988,0,0,1-.164,2.1,22.441,22.441,0,0,1-2.971,7.864,21.561,21.561,0,0,1-5.68,6.3A13.588,13.588,0,0,1,92.614,71.289Zm.723,15.629a7.92,7.92,0,0,1-3.25.788A5.428,5.428,0,0,1,84.9,84.193a6.849,6.849,0,0,1-.624-2.856,8.363,8.363,0,0,1,.23-1.9,5.9,5.9,0,0,1,3.053-3.612,6.245,6.245,0,0,1,2.922-.755,10.041,10.041,0,0,1,2.544.476q1.658.476,2.938,3.53a7.1,7.1,0,0,1,.492,2.561,10.419,10.419,0,0,1-.41,2.512,4.842,4.842,0,0,1-2.709,2.774Zm39.01-52.992A17.438,17.438,0,0,1,142,37.012a19.17,19.17,0,0,1,5.45,7.633A58.853,58.853,0,0,1,150.781,55.3q1.231,5.713,2.019,10.769.459,2.923.919,5.188h-4.4a18.307,18.307,0,0,1-3.546-.312q-1.576-.312-1.871-1.2-.657-2.889-1.182-5.68a85.035,85.035,0,0,0-2.3-9.915l-.263.132q-3.218,1.379-6.32,2.43a29.069,29.069,0,0,1-6.714,1.379,22.3,22.3,0,0,1-6.419-.181,6.5,6.5,0,0,1-4.285-2.643q-1.478-2.1-1.116-6.37.721-7.191,5.22-11.13t11.819-3.841Zm-.361,4.268q-1.313-.426-2.38,1.4a17.7,17.7,0,0,0-1.773,4.712,31.719,31.719,0,0,0-.87,5.647,10.98,10.98,0,0,0,.361,4.2,18.878,18.878,0,0,0,3.415-1.116q2.5-.986,4.843-2.069a17.3,17.3,0,0,0,2.906-1.543,15.75,15.75,0,0,0-.936-2.364q-.706-1.51-1.445-2.955T134.94,42a6.411,6.411,0,0,1-.394-.69,19.754,19.754,0,0,0-1.2-1.839A4.206,4.206,0,0,0,131.985,38.194ZM159.365,85.8a7.918,7.918,0,0,1-3.25.788,5.429,5.429,0,0,1-5.188-3.513,6.866,6.866,0,0,1-.624-2.856,8.394,8.394,0,0,1,.23-1.9,5.908,5.908,0,0,1,3.053-3.612,6.247,6.247,0,0,1,2.922-.755,10.037,10.037,0,0,1,2.544.476q1.658.476,2.938,3.53a7.088,7.088,0,0,1,.492,2.561,10.412,10.412,0,0,1-.41,2.512,4.841,4.841,0,0,1-2.709,2.774Zm45.112-14.413h-.066a16.562,16.562,0,0,1-7.486-1.773,18.817,18.817,0,0,1-6.271-5.122,19.6,19.6,0,0,1-5.269,4.859,13.168,13.168,0,0,1-6.419,2.036h-.624a16.564,16.564,0,0,1-7.486-1.773,18.81,18.81,0,0,1-6.271-5.122,19.721,19.721,0,0,1-5.253,4.859,13.12,13.12,0,0,1-6.435,2.036,2.244,2.244,0,0,1-1.658-.64,2.167,2.167,0,0,1,1.527-3.694q4.334,0,5.614-9.915.426-3.349.558-6.8.1-1.871.2-2.725a15.253,15.253,0,0,1,4.6-.821,10.041,10.041,0,0,1,3.4.722q1.953.723,2.085,4.728l-.033.985a16.983,16.983,0,0,0,1.576,8.027,13.164,13.164,0,0,0,3.808,4.515,6.455,6.455,0,0,0,4.039,1.28h.23q3.119,0,4.629-5.154a42.915,42.915,0,0,0,1.412-9.555q.229-3.972.328-4.728a15.18,15.18,0,0,1,4.564-.821,10.176,10.176,0,0,1,3.415.722q1.97.723,2.1,4.728l-.033.985a16.99,16.99,0,0,0,1.576,8.027,13.338,13.338,0,0,0,3.776,4.515,6.469,6.469,0,0,0,3.874,1.28,2.167,2.167,0,0,1,0,4.334Zm-22.129-24.92a7.918,7.918,0,0,1-3.25.788,5.428,5.428,0,0,1-5.188-3.513,6.857,6.857,0,0,1-.624-2.856,8.366,8.366,0,0,1,.23-1.9,5.908,5.908,0,0,1,3.053-3.612,6.253,6.253,0,0,1,2.922-.755,10.061,10.061,0,0,1,2.544.476q1.658.476,2.938,3.53a7.085,7.085,0,0,1,.493,2.561,10.417,10.417,0,0,1-.411,2.512,4.84,4.84,0,0,1-2.709,2.774Zm21.669,24.789a2.335,2.335,0,0,1-1.593-.558,1.863,1.863,0,0,1-.64-1.477,2.152,2.152,0,0,1,.624-1.559,2.314,2.314,0,0,1,1.543-.706,9.361,9.361,0,0,0,6.879-3.25,20.978,20.978,0,0,0,3.924-7.273,80.788,80.788,0,0,0,2.233-8.421q.525-2.4,1.051-4.367.164-.591.263-1.117a4.89,4.89,0,0,1,.492-1.51,1.456,1.456,0,0,1,1.281-.657,14.73,14.73,0,0,1,4.465.46.747.747,0,0,1,.23.033,12.233,12.233,0,0,1,1.494.411,1.076,1.076,0,0,1,.64.542,5.952,5.952,0,0,1,.329,1.116,8.933,8.933,0,0,0,.23,1.018L231.367,60a45.029,45.029,0,0,0,1.707-8.963,58.685,58.685,0,0,0,.132-6.632c-.022-.263-.033-.493-.033-.69q-.066-.887.1-1.051t.952.033q.394.1.952.2l4.038.723a1.087,1.087,0,0,1,.263.033,8.612,8.612,0,0,1,1.461.329,1.1,1.1,0,0,1,.64.591,8.326,8.326,0,0,1,.427,1.346c.043.219.1.449.164.69a42.8,42.8,0,0,1,1.117,8.11,39.583,39.583,0,0,0,1.215,8.176q.985,3.184,2.413,3.727a2.422,2.422,0,0,0,2.709-.723,7.731,7.731,0,0,0,1.9-3.53,15.634,15.634,0,0,0-.427-7.388,58.084,58.084,0,0,0-2.3-6.731q-1.018-2.43-.854-2.824a7.142,7.142,0,0,1,7.223.394,10.371,10.371,0,0,1,3.135,4.121,23.16,23.16,0,0,1,1.953,6.55A18.169,18.169,0,0,1,260,63.541a10.2,10.2,0,0,1-3.546,5.647q-2.725,2.233-7.913,2.3a14.363,14.363,0,0,1-6.37-1.2,15.4,15.4,0,0,1-3.874-3,1.174,1.174,0,0,0-.23-.23,20.556,20.556,0,0,0-1.9,2.5q-.756,1.149-1.609,2.233-2.758,3.085-5.631,2.38t-4.285-4.219a58.774,58.774,0,0,1-1.74-7.026q-.427-2.2-.723-3.284a33.073,33.073,0,0,1-4.4,5.549,21.813,21.813,0,0,1-6.025,4.35A17.559,17.559,0,0,1,204.017,71.257Zm32.9-37.364a5.846,5.846,0,0,1-1.724,4.252,5.789,5.789,0,0,1-8.307,0,6.106,6.106,0,0,1,0-8.5,5.789,5.789,0,0,1,8.307,0,5.847,5.847,0,0,1,1.724,4.252Zm6.074-10.8a5.846,5.846,0,0,1-1.724,4.252,5.768,5.768,0,0,1-8.29,0,6.147,6.147,0,0,1,0-8.5,5.769,5.769,0,0,1,8.29,0,5.848,5.848,0,0,1,1.724,4.252Zm6.041,10.835a5.846,5.846,0,0,1-1.724,4.252,5.769,5.769,0,0,1-8.29,0,6.147,6.147,0,0,1,0-8.5,5.769,5.769,0,0,1,8.29,0,5.848,5.848,0,0,1,1.724,4.252Zm68.052,9.193a24.732,24.732,0,0,1-.1-2.659,9.8,9.8,0,0,1,4.006-.837,12.633,12.633,0,0,1,3.907.64q2.4.985,2.955,5.877a71.1,71.1,0,0,0,2,13.2,11.646,11.646,0,0,0,3.25,5.582,7.241,7.241,0,0,0,4.7,2.036,2.057,2.057,0,0,1,1.51.624,2.1,2.1,0,0,1,.624,1.543,2.13,2.13,0,0,1-2.134,2.134,20.751,20.751,0,0,1-10.031-2.134,14.661,14.661,0,0,1-6.025-6.205,23.931,23.931,0,0,1-5.352,4.235,33.528,33.528,0,0,1-8.865,3.365,50.554,50.554,0,0,1-11.065,1.362,50.111,50.111,0,0,1-11.409-1.231,32.075,32.075,0,0,1-10-4.038,19.481,19.481,0,0,1-6.862-7.174A18.579,18.579,0,0,1,266.257,48.8a29.329,29.329,0,0,1,1.215-6.14,34.866,34.866,0,0,1,1.691-4.416,16.254,16.254,0,0,1,.87-1.691,11.674,11.674,0,0,1,5.22-.181,12.9,12.9,0,0,1,4.071,1.56,18.489,18.489,0,0,1-1.018,4.892,65.387,65.387,0,0,0-1.576,6.468,19.61,19.61,0,0,0-.131,6.961,10.249,10.249,0,0,0,4.4,6.911q3.808,2.808,12.509,3.135a32.331,32.331,0,0,0,11.278-1.461,19.114,19.114,0,0,0,8.356-5.434,15.718,15.718,0,0,0,3.169-5.68,21.583,21.583,0,0,0,.919-5.713,45.039,45.039,0,0,0-.148-4.892Zm-28.433,3.94a6.306,6.306,0,0,1,4.629,1.9,5.979,5.979,0,0,1,1.9,4.466,6.12,6.12,0,0,1-1.9,4.531,6.36,6.36,0,0,1-4.629,1.871,6.429,6.429,0,0,1-4.629-1.871,6.117,6.117,0,0,1-1.9-4.531,5.976,5.976,0,0,1,1.9-4.466,6.374,6.374,0,0,1,4.629-1.9Zm13.461,0a6.3,6.3,0,0,1,4.629,1.9,5.977,5.977,0,0,1,1.9,4.466,6.119,6.119,0,0,1-1.9,4.531,6.359,6.359,0,0,1-4.629,1.871,6.431,6.431,0,0,1-4.629-1.871,6.118,6.118,0,0,1-1.9-4.531,5.977,5.977,0,0,1,1.9-4.466,6.375,6.375,0,0,1,4.629-1.9Zm85.711,22.064a22.351,22.351,0,0,1-10.343,2.462h-.755a45.187,45.187,0,0,1-11.065-1.4,34.987,34.987,0,0,1-9.358-3.661,30.262,30.262,0,0,1-8.536,3.841,31.986,31.986,0,0,1-7.946,1.051q-.952,0-1.379-.033h-.887a2.123,2.123,0,0,1-1.559-.64,2.16,2.16,0,0,1-.033-3.037,2.16,2.16,0,0,1,1.527-.657,14.276,14.276,0,0,0,5.4-.952A17.551,17.551,0,0,0,346.78,64a18.3,18.3,0,0,0,2.167-1.806l-4.958-5.286a18.732,18.732,0,0,1-3.907-6.6,22.558,22.558,0,0,1-1.247-7.42q0-.361.065-2.643a12.536,12.536,0,0,1,2.068-5.664,11.514,11.514,0,0,1,6.3-4.925,15.4,15.4,0,0,1,5.254-.821,30.713,30.713,0,0,1,5.975.657q8.306,1.871,11.229,7.19a13.6,13.6,0,0,1,1.642,6.6,27.953,27.953,0,0,1-1.576,7.7q-1.576,5.007-8.668,11.836a20.3,20.3,0,0,0,6.058,3.021,24.955,24.955,0,0,0,8.093,1.346,8.616,8.616,0,0,0,6.271-2.265,28.888,28.888,0,0,1-4.006-5.056,24.392,24.392,0,0,1-2.528-5.91,16.31,16.31,0,0,1-.657-4.5,18.833,18.833,0,0,1,1.067-5.631q1.067-3.3,5.237-5.959a15.677,15.677,0,0,1,5.91-1.839,23.286,23.286,0,0,1,3.021-.2,30.586,30.586,0,0,1,5.007.493,14.446,14.446,0,0,1,5.68,2.364,8.778,8.778,0,0,1,3.661,5.155,15.2,15.2,0,0,1,.3,2.988,18.257,18.257,0,0,1-1.248,6.107,25.5,25.5,0,0,1-4.071,7.026,32.04,32.04,0,0,1-5.844,5.844,3.912,3.912,0,0,0,1.248.2,9.584,9.584,0,0,0,4.432-1.576,17.6,17.6,0,0,0,5.335-5.319,17.169,17.169,0,0,0,2.972-8.767l.033-.919a14.394,14.394,0,0,0-2.216-7.929,12.762,12.762,0,0,0-7.01-5.073q-2.4-.722-2.4-1.182,0-.3.952-.591a12.958,12.958,0,0,1,3.152-.394,19.083,19.083,0,0,1,7.453,1.675,25.118,25.118,0,0,1,8.323,5.269,11.654,11.654,0,0,1,3.858,7.929,17.63,17.63,0,0,1-1.953,7.995,23.293,23.293,0,0,1-5.106,6.78,25.115,25.115,0,0,1-11.524,6.008,23.809,23.809,0,0,1-5.089.558,22.994,22.994,0,0,1-7.716-1.346ZM355.054,25.718a7.927,7.927,0,0,1-3.25.788,5.428,5.428,0,0,1-5.188-3.513,6.857,6.857,0,0,1-.624-2.856,8.366,8.366,0,0,1,.23-1.9,5.907,5.907,0,0,1,3.053-3.612,6.253,6.253,0,0,1,2.922-.755,10.061,10.061,0,0,1,2.544.476q1.658.476,2.938,3.53a7.085,7.085,0,0,1,.493,2.561,10.418,10.418,0,0,1-.411,2.512,4.841,4.841,0,0,1-2.709,2.774Zm-.329,31.716q6.238-6.434,6.238-14.249A16.979,16.979,0,0,0,360,37.948a5.659,5.659,0,0,0-4.121-3.825,4.981,4.981,0,0,0-.985-.1,4.909,4.909,0,0,0-3.25,1.428,8.618,8.618,0,0,0-2.331,4.712,13.023,13.023,0,0,0-.263,2.692,24.175,24.175,0,0,0,.936,5.844Q350.918,52.28,354.726,57.434Zm32.373.526q.361.723.624.723.361,0,1.379-1.314a17.911,17.911,0,0,0,3.25-6.862,19.846,19.846,0,0,0,.526-4.5,19.189,19.189,0,0,0-.262-3.152q-.526-3.184-1.511-3.185-.854,0-2.561,2.331a14.6,14.6,0,0,0-3.316,8.733,15.988,15.988,0,0,0,1.871,7.223Z" transform="translate(-5.135 -4.658)" fill="#87cb40"/>
    </g>
  </g>
</svg>

