<svg xmlns="http://www.w3.org/2000/svg" width="527.581" height="348.803" viewBox="0 0 527.581 348.803">
  <g id="_" data-name="%" transform="translate(85 154.488)" opacity="0.48">
    <path id="_2" data-name="%" d="M463.347,275.28q13.733-20.088,27.9-41.02,16.115-24.247,22.979-33.841,3.1-4.345,5.88-8.337,8.532-10.931,19.506-29.76,12.33-22.444,11.006-32.58t-12.026-6.437q-10.7,3.7-26.87,22.879-6.733,8.2-10.353,12.859t-6.978,9.167q-1.609,1.963-3.62,4.663-9.779,12.347-27.355,35.344t-33.841,45.2q-16.265,22.2-22.16,32.357-6.927,14.236-1.226,22.864t16.862,7.943q11.162-.685,21.186-14Q449.609,295.374,463.347,275.28ZM566.305,254.35q-8.653-8.021-22-10.005-16.2-.863-25.573,8.211t-12,19.493a33.555,33.555,0,0,0,5.341,27.774,36.228,36.228,0,0,0,23.832,15.4q15.054,2.841,30.412-11.689,13.339-12.864,10.818-31.207Q574.955,262.374,566.305,254.35ZM447.549,133.957q-8.121-6.328-20.122-7.293-14.514-.18-22.876,7.454-8.5,7.756-11.005,16.623a26.589,26.589,0,0,0,4.62,24.078c5.568,7.386,13.222,11.783,22.917,13.1,9.72,1.32,19.391-2.615,28.843-11.668,7.934-8.116,10.685-17.348,8.4-27.622Q455.765,140.34,447.549,133.957Z" transform="translate(-392.467 -122.318)" fill="#f5f5f5"/>
    <path id="_3" data-name="%" d="M423.1,188.437q5.936-8.683,12.06-17.731,6.966-10.481,9.933-14.628,1.338-1.878,2.542-3.6a118.351,118.351,0,0,0,8.432-12.864q5.33-9.7,4.758-14.083t-5.2-2.782q-4.627,1.6-11.615,9.89-2.91,3.543-4.475,5.558t-3.016,3.963q-.7.849-1.565,2.016-4.227,5.337-11.824,15.278t-14.628,19.538q-7.031,9.6-9.579,13.986-2.994,6.153-.53,9.883a7.554,7.554,0,0,0,7.289,3.434q4.825-.3,9.158-6.053Q417.167,197.122,423.1,188.437Zm44.5-9.047a17.34,17.34,0,0,0-9.508-4.325q-7-.373-11.054,3.549a17.86,17.86,0,0,0-5.186,8.426,14.5,14.5,0,0,0,2.308,12.006,15.66,15.66,0,0,0,10.3,6.658q6.507,1.228,13.146-5.053a13.837,13.837,0,0,0-.008-21.261Zm-51.333-52.04a15.9,15.9,0,0,0-8.7-3.153q-6.274-.078-9.888,3.222a15.519,15.519,0,0,0-4.757,7.185,11.493,11.493,0,0,0,2,10.408,14.3,14.3,0,0,0,9.906,5.661c4.2.571,8.382-1.13,12.467-5.044,3.429-3.508,4.619-7.5,3.631-11.94A12.916,12.916,0,0,0,416.276,127.349Z" transform="translate(-150.776 -196.997)" fill="#f5f5f5" opacity="0.66"/>
    <path id="_4" data-name="%" d="M424.859,192.223q6.276-9.18,12.751-18.746,7.365-11.081,10.5-15.465,1.415-1.986,2.687-3.81a125.132,125.132,0,0,0,8.915-13.6q5.635-10.257,5.03-14.889t-5.5-2.942q-4.892,1.689-12.28,10.456-3.077,3.746-4.731,5.877t-3.189,4.189q-.736.9-1.654,2.131-4.469,5.642-12.5,16.152t-15.465,20.656q-7.433,10.146-10.127,14.787-3.165,6.506-.56,10.449a7.987,7.987,0,0,0,7.706,3.63q5.1-.313,9.682-6.4Q418.581,201.405,424.859,192.223Zm47.053-9.565a18.333,18.333,0,0,0-10.053-4.573q-7.4-.395-11.687,3.752a18.882,18.882,0,0,0-5.483,8.909,15.335,15.335,0,0,0,2.441,12.693,16.556,16.556,0,0,0,10.891,7.039q6.88,1.3,13.9-5.342a14.63,14.63,0,0,0-.008-22.478Zm-54.272-55.02a16.811,16.811,0,0,0-9.2-3.333q-6.633-.082-10.455,3.407a16.407,16.407,0,0,0-5.029,7.6,12.152,12.152,0,0,0,2.111,11,15.123,15.123,0,0,0,10.473,5.985c4.442.6,8.862-1.2,13.181-5.332,3.626-3.709,4.883-7.928,3.839-12.623A13.656,13.656,0,0,0,417.64,127.637Z" transform="translate(-477.467 -276.807)" fill="#f5f5f5" opacity="0.59"/>
    <path id="_5" data-name="%" d="M424.859,192.223q6.276-9.18,12.751-18.746,7.365-11.081,10.5-15.465,1.415-1.986,2.687-3.81a125.132,125.132,0,0,0,8.915-13.6q5.635-10.257,5.03-14.889t-5.5-2.942q-4.892,1.689-12.28,10.456-3.077,3.746-4.731,5.877t-3.189,4.189q-.736.9-1.654,2.131-4.469,5.642-12.5,16.152t-15.465,20.656q-7.433,10.146-10.127,14.787-3.165,6.506-.56,10.449a7.987,7.987,0,0,0,7.706,3.63q5.1-.313,9.682-6.4Q418.581,201.405,424.859,192.223Zm47.053-9.565a18.333,18.333,0,0,0-10.053-4.573q-7.4-.395-11.687,3.752a18.882,18.882,0,0,0-5.483,8.909,15.335,15.335,0,0,0,2.441,12.693,16.556,16.556,0,0,0,10.891,7.039q6.88,1.3,13.9-5.342a14.63,14.63,0,0,0-.008-22.478Zm-54.272-55.02a16.811,16.811,0,0,0-9.2-3.333q-6.633-.082-10.455,3.407a16.407,16.407,0,0,0-5.029,7.6,12.152,12.152,0,0,0,2.111,11,15.123,15.123,0,0,0,10.473,5.985c4.442.6,8.862-1.2,13.181-5.332,3.626-3.709,4.883-7.928,3.839-12.623A13.656,13.656,0,0,0,417.64,127.637Z" transform="translate(-34.467 -106.807)" fill="#f5f5f5" opacity="0.59"/>
    <path id="_copy_2" data-name="% copy 2" d="M541.633,126.228q-10.131,3.215-25.18,21.063-6.282,7.655-9.663,12.025t-6.521,8.607q-1.509,1.842-3.39,4.384-9.179,11.621-25.746,33.4-16.646,21.875-32.144,43.164-15.557,21.368-21.209,31.241-6.607,13.871-.9,22.5t16.666,8.167a19.1,19.1,0,0,0,3.63-.518q-6.818,5.86-14.122,6.32-11.163.69-16.862-7.943t1.226-22.864q5.895-10.152,22.16-32.357t33.841-45.2q17.574-23,27.355-35.344,2.015-2.7,3.62-4.663,3.354-4.5,6.978-9.167t10.353-12.859q16.168-19.183,26.87-22.879,8.623-2.979,11.155,3.031Q546.824,124.587,541.633,126.228ZM413.007,132.8q-8.135,7.2-10.463,15.657c-2.19,8.384-.633,16.177,4.78,23.324a33.8,33.8,0,0,0,22.437,13.238,26.419,26.419,0,0,0,7.787.089,28.611,28.611,0,0,1-16.466,2.807c-9.694-1.313-17.349-5.711-22.917-13.1a26.589,26.589,0,0,1-4.62-24.078q2.491-8.872,11.005-16.623c5.546-5.062,13.083-7.526,22.646-7.449A26.31,26.31,0,0,0,413.007,132.8ZM518.735,252.555a28.481,28.481,0,0,1,13.574-7.269,25,25,0,0,0-6.785,4.7q-8.863,8.626-11.182,18.734A33.829,33.829,0,0,0,520.124,296a37.132,37.132,0,0,0,23.475,15.57,25.645,25.645,0,0,0,13.306-.746q-10.57,6.362-20.995,4.4a36.228,36.228,0,0,1-23.832-15.4,33.555,33.555,0,0,1-5.341-27.774Q509.364,261.633,518.735,252.555Z" transform="translate(-392.467 -122.319)" fill="#f5f5f5"/>
    <path id="Shape_2" data-name="Shape 2" d="M454.949,150.719A36.951,36.951,0,0,0,448,145.865L454.957,142a32.261,32.261,0,0,1,7.1,5.777Zm6.965,10.605a16.627,16.627,0,0,0-2.476-5.565l6.323-2.569c1.409,3.019,1.606,6.442.791,10.452a24.666,24.666,0,0,1-12.368,17.006S463.673,169.129,461.914,161.325Z" transform="translate(-405.073 -126.786)" fill="#f5f5f5" opacity="0.47"/>
    <path id="Shape_2_copy" data-name="Shape 2 copy" d="M605.328,304.475A40.594,40.594,0,0,0,597.8,298.1l7.538-5.077a36.887,36.887,0,0,1,7.695,7.589Zm7.547,13.931a24.354,24.354,0,0,0-2.682-7.31l6.851-3.374a25.318,25.318,0,0,1,1.782,13.11c-1.874,15-14.326,22.959-14.326,22.959S614.78,328.658,612.875,318.406Z" transform="translate(-439.079 -161.07)" fill="#f5f5f5" opacity="0.47"/>
    <path id="Shape_4" data-name="Shape 4" d="M568.169,151.864l-4.764-.353a61.829,61.829,0,0,0,2.711-5.652c5.154-12.7-1.78-11.084-1.78-11.084s13.025-5.071,6.907,10.855A49.115,49.115,0,0,1,568.169,151.864Zm-9.834,8.419h4.675c-3.875,6-8.745,13.066-14.133,20.871C521.945,220.169,511,236.036,511,236.036s-.433-4.331,25.509-42.514C545.635,180.088,553.053,168.941,558.335,160.283Z" transform="translate(-419.375 -124.972)" fill="#f5f5f5" opacity="0.47"/>
  </g>
</svg>

