<svg id="_" data-name="%" xmlns="http://www.w3.org/2000/svg" xmlns:xlink="http://www.w3.org/1999/xlink" width="81.894" height="85.982" viewBox="0 0 81.894 85.982">
  <defs>
    <linearGradient id="linear-gradient" x1="0.896" y1="0.526" x2="0.5" y2="1" gradientUnits="objectBoundingBox">
      <stop offset="0" stop-color="#ffc70d"/>
      <stop offset="1" stop-color="#ffa200"/>
    </linearGradient>
    <linearGradient id="linear-gradient-2" x1="0.5" x2="0.5" y2="1" gradientUnits="objectBoundingBox">
      <stop offset="0" stop-color="#f90"/>
      <stop offset="1" stop-color="#9f6a00"/>
    </linearGradient>
  </defs>
  <g id="Group_1" data-name="Group 1">
    <path id="_2" data-name="%" d="M423.83,190q6.077-8.889,12.346-18.151,7.131-10.729,10.168-14.974,1.37-1.923,2.6-3.689a121.159,121.159,0,0,0,8.632-13.169q5.456-9.931,4.87-14.416t-5.321-2.848q-4.737,1.635-11.889,10.124-2.979,3.627-4.581,5.69t-3.088,4.056q-.712.869-1.6,2.063-4.327,5.463-12.1,15.639t-14.974,20q-7.2,9.824-9.806,14.318-3.065,6.3-.542,10.117A7.733,7.733,0,0,0,406,208.278q4.939-.3,9.375-6.2Q417.751,198.893,423.83,190Zm45.558-9.262a17.75,17.75,0,0,0-9.734-4.427q-7.169-.382-11.316,3.633a18.283,18.283,0,0,0-5.309,8.626,14.848,14.848,0,0,0,2.363,12.29,16.031,16.031,0,0,0,10.546,6.815q6.661,1.257,13.457-5.172a14.165,14.165,0,0,0-.008-21.764ZM416.84,127.468a16.277,16.277,0,0,0-8.9-3.227q-6.422-.08-10.123,3.3a15.885,15.885,0,0,0-4.87,7.355,11.766,11.766,0,0,0,2.044,10.654,14.642,14.642,0,0,0,10.14,5.8c4.3.584,8.58-1.157,12.762-5.163,3.511-3.591,4.728-7.676,3.717-12.222A13.222,13.222,0,0,0,416.84,127.468Z" transform="translate(-392.467 -122.318)" fill="url(#linear-gradient)"/>
    <path id="_copy_2" data-name="% copy 2" d="M458.471,124.049q-4.483,1.423-11.142,9.32-2.78,3.387-4.276,5.321t-2.885,3.808q-.668.815-1.5,1.94-4.062,5.142-11.392,14.777-7.366,9.679-14.224,19.1-6.884,9.455-9.385,13.824-2.924,6.138-.4,9.958a7.849,7.849,0,0,0,7.375,3.614,8.452,8.452,0,0,0,1.606-.229,10.559,10.559,0,0,1-6.249,2.8,7.733,7.733,0,0,1-7.461-3.515q-2.523-3.818.542-10.117,2.608-4.492,9.806-14.318t14.974-20q7.776-10.175,12.1-15.639.891-1.2,1.6-2.063,1.484-1.992,3.088-4.056t4.581-5.69q7.154-8.488,11.889-10.124,3.816-1.318,4.936,1.341A4.365,4.365,0,0,0,458.471,124.049Zm-56.915,2.908a14.419,14.419,0,0,0-4.63,6.928,11.5,11.5,0,0,0,2.115,10.321,14.958,14.958,0,0,0,9.928,5.858,11.688,11.688,0,0,0,3.446.039,12.66,12.66,0,0,1-7.286,1.242,14.642,14.642,0,0,1-10.14-5.8,11.766,11.766,0,0,1-2.044-10.654,15.886,15.886,0,0,1,4.87-7.355c2.454-2.24,5.789-3.33,10.021-3.3A11.641,11.641,0,0,0,401.556,126.958Zm46.783,52.99a12.6,12.6,0,0,1,6.006-3.216,11.062,11.062,0,0,0-3,2.08,16.834,16.834,0,0,0-4.948,8.29,14.969,14.969,0,0,0,2.559,12.071,16.431,16.431,0,0,0,10.387,6.889,11.348,11.348,0,0,0,5.888-.33,12.962,12.962,0,0,1-9.29,1.947,16.031,16.031,0,0,1-10.546-6.815,14.848,14.848,0,0,1-2.363-12.29A18.283,18.283,0,0,1,448.339,179.948Z" transform="translate(-392.467 -122.319)" fill="url(#linear-gradient-2)"/>
    <path id="Shape_2" data-name="Shape 2" d="M451.075,145.858A16.352,16.352,0,0,0,448,143.71l3.078-1.71a14.273,14.273,0,0,1,3.143,2.556Zm3.082,4.693a7.357,7.357,0,0,0-1.1-2.462l2.8-1.137a7.232,7.232,0,0,1,.35,4.625,10.914,10.914,0,0,1-5.473,7.525S454.935,154,454.157,150.551Z" transform="translate(-429.005 -135.268)" fill="#fff" opacity="0.47"/>
    <path id="Shape_2_copy" data-name="Shape 2 copy" d="M601.131,298.089a17.965,17.965,0,0,0-3.332-2.822l3.336-2.247a16.327,16.327,0,0,1,3.405,3.358Zm3.339,6.164a10.768,10.768,0,0,0-1.187-3.234l3.032-1.493a11.2,11.2,0,0,1,.789,5.8,15.251,15.251,0,0,1-6.339,10.159S605.313,308.79,604.47,304.254Z" transform="translate(-527.567 -234.634)" fill="#fff" opacity="0.47"/>
    <path id="Shape_4" data-name="Shape 4" d="M536.3,141.908l-2.108-.156a27.366,27.366,0,0,0,1.2-2.5c2.281-5.62-.788-4.9-.788-4.9s5.764-2.244,3.056,4.8A21.745,21.745,0,0,1,536.3,141.908Zm-4.351,3.725h2.068c-1.714,2.653-3.87,5.781-6.254,9.235C515.843,172.133,511,179.154,511,179.154s-.192-1.917,11.287-18.812C526.325,154.4,529.608,149.465,531.945,145.634Z" transform="translate(-470.457 -130.009)" fill="#fff" opacity="0.47"/>
  </g>
</svg>
