<svg id="_Green" data-name="% Green" xmlns="http://www.w3.org/2000/svg" xmlns:xlink="http://www.w3.org/1999/xlink" width="81.87" height="85.957" viewBox="0 0 81.87 85.957">
  <defs>
    <linearGradient id="linear-gradient" x1="0.896" y1="0.526" x2="0.5" y2="1" gradientUnits="objectBoundingBox">
      <stop offset="0" stop-color="#87cb40"/>
      <stop offset="1" stop-color="#74a83c"/>
    </linearGradient>
    <linearGradient id="linear-gradient-2" x1="0.5" x2="0.5" y2="1" gradientUnits="objectBoundingBox">
      <stop offset="0" stop-color="#75b82e"/>
      <stop offset="1" stop-color="#3b5c17"/>
    </linearGradient>
  </defs>
  <g id="Group_1" data-name="Group 1" transform="translate(0 0)">
    <path id="_" data-name="%" d="M423.821,189.983q6.075-8.886,12.342-18.146,7.129-10.726,10.165-14.97,1.369-1.922,2.6-3.688a121.106,121.106,0,0,0,8.629-13.165q5.454-9.928,4.869-14.412t-5.32-2.847q-4.735,1.635-11.886,10.121-2.978,3.626-4.58,5.688t-3.087,4.055q-.712.868-1.6,2.063-4.326,5.462-12.1,15.635t-14.97,19.994q-7.195,9.821-9.8,14.313-3.064,6.3-.542,10.114A7.731,7.731,0,0,0,406,208.253q4.938-.3,9.372-6.195Q417.744,198.871,423.821,189.983Zm45.545-9.259a17.745,17.745,0,0,0-9.731-4.426q-7.167-.382-11.312,3.632a18.277,18.277,0,0,0-5.307,8.623,14.844,14.844,0,0,0,2.362,12.286,16.025,16.025,0,0,0,10.542,6.813q6.659,1.257,13.453-5.171a14.161,14.161,0,0,0-.008-21.758Zm-52.533-53.257a16.272,16.272,0,0,0-8.9-3.226q-6.42-.08-10.12,3.3a15.881,15.881,0,0,0-4.868,7.353,11.762,11.762,0,0,0,2.044,10.651,14.638,14.638,0,0,0,10.137,5.793c4.3.584,8.578-1.157,12.759-5.162,3.51-3.59,4.727-7.674,3.716-12.219A13.218,13.218,0,0,0,416.833,127.467Z" transform="translate(-392.467 -122.318)" fill="url(#linear-gradient)"/>
    <path id="_copy_2" data-name="% copy 2" d="M458.452,124.049q-4.482,1.422-11.139,9.318-2.779,3.386-4.274,5.319t-2.884,3.807q-.667.815-1.5,1.939-4.06,5.141-11.389,14.773-7.363,9.676-14.219,19.094-6.882,9.452-9.382,13.82-2.923,6.136-.4,9.955a7.847,7.847,0,0,0,7.372,3.613,8.446,8.446,0,0,0,1.606-.229,10.555,10.555,0,0,1-6.247,2.8,7.731,7.731,0,0,1-7.459-3.514q-2.522-3.817.542-10.114,2.608-4.491,9.8-14.313t14.97-19.994q7.774-10.173,12.1-15.635.891-1.2,1.6-2.063,1.484-1.991,3.087-4.055t4.58-5.688q7.152-8.486,11.886-10.121,3.815-1.318,4.934,1.341A4.364,4.364,0,0,0,458.452,124.049Zm-56.9,2.908a14.414,14.414,0,0,0-4.628,6.926,11.5,11.5,0,0,0,2.114,10.318,14.954,14.954,0,0,0,9.925,5.856,11.685,11.685,0,0,0,3.445.039,12.656,12.656,0,0,1-7.284,1.242,14.638,14.638,0,0,1-10.137-5.793,11.762,11.762,0,0,1-2.044-10.651,15.881,15.881,0,0,1,4.868-7.353c2.453-2.239,5.787-3.329,10.018-3.3A11.638,11.638,0,0,0,401.553,126.956Zm46.77,52.974a12.6,12.6,0,0,1,6-3.216,11.058,11.058,0,0,0-3,2.079,16.829,16.829,0,0,0-4.947,8.287,14.965,14.965,0,0,0,2.558,12.068,16.426,16.426,0,0,0,10.384,6.887,11.344,11.344,0,0,0,5.886-.33,12.958,12.958,0,0,1-9.287,1.946,16.025,16.025,0,0,1-10.542-6.813,14.844,14.844,0,0,1-2.362-12.286A18.277,18.277,0,0,1,448.323,179.931Z" transform="translate(-392.467 -122.319)" fill="url(#linear-gradient-2)"/>
    <path id="Shape_2" data-name="Shape 2" d="M451.074,145.857A16.345,16.345,0,0,0,448,143.71l3.077-1.71a14.27,14.27,0,0,1,3.142,2.556Zm3.081,4.691a7.354,7.354,0,0,0-1.1-2.462l2.8-1.136a7.231,7.231,0,0,1,.35,4.624,10.911,10.911,0,0,1-5.471,7.523S454.933,154,454.155,150.548Z" transform="translate(-429.011 -135.27)" fill="#fff" opacity="0.47"/>
    <path id="Shape_2_copy" data-name="Shape 2 copy" d="M601.13,298.088a17.959,17.959,0,0,0-3.331-2.821l3.334-2.246a16.315,16.315,0,0,1,3.4,3.357Zm3.338,6.163a10.776,10.776,0,0,0-1.187-3.234l3.031-1.493a11.2,11.2,0,0,1,.788,5.8,15.246,15.246,0,0,1-6.337,10.156S605.311,308.785,604.468,304.25Z" transform="translate(-527.588 -234.651)" fill="#fff" opacity="0.47"/>
    <path id="Shape_4" data-name="Shape 4" d="M536.289,141.906l-2.107-.156a27.342,27.342,0,0,0,1.2-2.5c2.28-5.618-.788-4.9-.788-4.9s5.762-2.243,3.055,4.8A21.731,21.731,0,0,1,536.289,141.906Zm-4.35,3.724h2.068c-1.714,2.652-3.869,5.78-6.252,9.232C515.841,172.122,511,179.141,511,179.141s-.192-1.916,11.284-18.807C526.321,154.392,529.6,149.46,531.939,145.631Z" transform="translate(-470.468 -130.01)" fill="#fff" opacity="0.47"/>
  </g>
</svg>
