<svg id="_" data-name="%" xmlns="http://www.w3.org/2000/svg" xmlns:xlink="http://www.w3.org/1999/xlink" width="72.637" height="76.263" viewBox="0 0 72.637 76.263">
  <defs>
    <linearGradient id="linear-gradient" x1="0.896" y1="0.526" x2="0.5" y2="1" gradientUnits="objectBoundingBox">
      <stop offset="0" stop-color="#ff4848"/>
      <stop offset="1" stop-color="#e10800"/>
    </linearGradient>
    <linearGradient id="linear-gradient-2" x1="0.5" x2="0.5" y2="1" gradientUnits="objectBoundingBox">
      <stop offset="0" stop-color="red"/>
      <stop offset="1" stop-color="#a80000"/>
    </linearGradient>
  </defs>
  <path id="_2" data-name="%" d="M420.285,182.352q5.39-7.884,10.95-16.1,6.325-9.516,9.019-13.281,1.215-1.705,2.308-3.272a107.469,107.469,0,0,0,7.656-11.68q4.839-8.809,4.32-12.787t-4.72-2.526q-4.2,1.45-10.546,8.979-2.642,3.217-4.063,5.047t-2.739,3.6q-.632.77-1.421,1.83-3.838,4.846-10.736,13.872t-13.282,17.739q-6.384,8.714-8.7,12.7-2.718,5.587-.481,8.973a6.859,6.859,0,0,0,6.618,3.118q4.381-.269,8.315-5.5Q414.893,190.238,420.285,182.352Zm40.408-8.215a15.744,15.744,0,0,0-8.633-3.927q-6.359-.339-10.037,3.222a16.216,16.216,0,0,0-4.709,7.651,13.169,13.169,0,0,0,2.1,10.9,14.218,14.218,0,0,0,9.353,6.045q5.908,1.115,11.936-4.588a12.564,12.564,0,0,0-.007-19.3Zm-46.609-47.251a14.437,14.437,0,0,0-7.9-2.862q-5.7-.071-8.978,2.925a14.09,14.09,0,0,0-4.319,6.524,10.435,10.435,0,0,0,1.813,9.45,12.987,12.987,0,0,0,8.994,5.14c3.815.518,7.611-1.026,11.32-4.579a11.243,11.243,0,0,0,3.3-10.841A11.728,11.728,0,0,0,414.085,126.886Z" transform="translate(-392.467 -122.318)" fill="url(#linear-gradient)"/>
  <path id="_copy_2" data-name="% copy 2" d="M451.01,123.854q-3.976,1.262-9.883,8.267-2.466,3-3.792,4.72t-2.559,3.378q-.592.723-1.331,1.721-3.6,4.561-10.1,13.107-6.533,8.585-12.616,16.941-6.106,8.386-8.324,12.261-2.593,5.444-.353,8.832a6.962,6.962,0,0,0,6.541,3.205,7.494,7.494,0,0,0,1.425-.2,9.365,9.365,0,0,1-5.543,2.481,6.859,6.859,0,0,1-6.618-3.118q-2.238-3.386.481-8.973,2.314-3.984,8.7-12.7t13.282-17.739q6.9-9.025,10.736-13.871.791-1.061,1.421-1.83,1.316-1.767,2.739-3.6t4.063-5.047q6.346-7.529,10.546-8.979,3.384-1.169,4.378,1.189A3.872,3.872,0,0,0,451.01,123.854Zm-50.482,2.58a12.789,12.789,0,0,0-4.107,6.145,10.2,10.2,0,0,0,1.876,9.154,13.267,13.267,0,0,0,8.806,5.2,10.368,10.368,0,0,0,3.056.035,11.228,11.228,0,0,1-6.462,1.1,12.987,12.987,0,0,1-8.994-5.14,10.436,10.436,0,0,1-1.813-9.45,14.09,14.09,0,0,1,4.319-6.524c2.177-1.987,5.135-2.954,8.888-2.924A10.326,10.326,0,0,0,400.528,126.434Zm41.5,47a11.177,11.177,0,0,1,5.327-2.853,9.81,9.81,0,0,0-2.663,1.845,14.932,14.932,0,0,0-4.389,7.353,13.277,13.277,0,0,0,2.269,10.707,14.574,14.574,0,0,0,9.213,6.111A10.065,10.065,0,0,0,457,196.3a11.5,11.5,0,0,1-8.24,1.727,14.218,14.218,0,0,1-9.353-6.045,13.169,13.169,0,0,1-2.1-10.9A16.216,16.216,0,0,1,442.023,173.434Z" transform="translate(-392.467 -122.319)" fill="url(#linear-gradient-2)"/>
  <path id="Shape_2" data-name="Shape 2" d="M450.727,145.422A14.5,14.5,0,0,0,448,143.517L450.73,142a12.661,12.661,0,0,1,2.787,2.267Zm2.734,4.162a6.523,6.523,0,0,0-.972-2.184l2.482-1.008a6.415,6.415,0,0,1,.31,4.1,9.68,9.68,0,0,1-4.854,6.674S454.151,152.647,453.461,149.584Z" transform="translate(-431.152 -136.029)" fill="#fff" opacity="0.47"/>
  <path id="Shape_2_copy" data-name="Shape 2 copy" d="M600.754,297.516a15.933,15.933,0,0,0-2.955-2.5l2.958-1.993a14.479,14.479,0,0,1,3.02,2.979Zm2.962,5.468a9.557,9.557,0,0,0-1.053-2.869l2.689-1.324a9.936,9.936,0,0,1,.7,5.146,13.527,13.527,0,0,1-5.623,9.011S604.464,307.008,603.716,302.984Z" transform="translate(-535.506 -241.234)" fill="#fff" opacity="0.47"/>
  <path id="Shape_4" data-name="Shape 4" d="M533.437,141.015l-1.87-.138a24.294,24.294,0,0,0,1.064-2.218c2.023-4.985-.7-4.35-.7-4.35s5.112-1.99,2.711,4.26A19.267,19.267,0,0,1,533.437,141.015Zm-3.859,3.3h1.835c-1.521,2.353-3.432,5.128-5.547,8.191C515.3,167.823,511,174.051,511,174.051s-.17-1.7,10.011-16.686C524.593,152.093,527.5,147.718,529.577,144.32Z" transform="translate(-475.039 -130.461)" fill="#fff" opacity="0.47"/>
</svg>
