<svg xmlns="http://www.w3.org/2000/svg" width="1895.581" height="1410.181" viewBox="0 0 1895.581 1410.181">
  <g id="productsBG" transform="translate(0 -2839.133)">
    <g id="_" data-name="%" transform="translate(1453 3443)" opacity="0.48">
      <path id="_2" data-name="%" d="M463.347,275.28q13.733-20.088,27.9-41.02,16.115-24.247,22.979-33.841,3.1-4.345,5.88-8.337,8.532-10.931,19.506-29.76,12.33-22.444,11.006-32.58t-12.026-6.437q-10.7,3.7-26.87,22.879-6.733,8.2-10.353,12.859t-6.978,9.167q-1.609,1.963-3.62,4.663-9.779,12.347-27.355,35.344t-33.841,45.2q-16.265,22.2-22.16,32.357-6.927,14.236-1.226,22.864t16.862,7.943q11.162-.685,21.186-14Q449.609,295.374,463.347,275.28ZM566.305,254.35q-8.653-8.021-22-10.005-16.2-.863-25.573,8.211t-12,19.493a33.555,33.555,0,0,0,5.341,27.774,36.228,36.228,0,0,0,23.832,15.4q15.054,2.841,30.412-11.689,13.339-12.864,10.818-31.207Q574.955,262.374,566.305,254.35ZM447.549,133.957q-8.121-6.328-20.122-7.293-14.514-.18-22.876,7.454-8.5,7.756-11.005,16.623a26.589,26.589,0,0,0,4.62,24.078c5.568,7.386,13.222,11.783,22.917,13.1,9.72,1.32,19.391-2.615,28.843-11.668,7.934-8.116,10.685-17.348,8.4-27.622Q455.765,140.34,447.549,133.957Z" transform="translate(-392.467 -122.318)" fill="#f5f5f5"/>
      <path id="_3" data-name="%" d="M424.859,192.223q6.276-9.18,12.751-18.746,7.365-11.081,10.5-15.465,1.415-1.986,2.687-3.81a125.132,125.132,0,0,0,8.915-13.6q5.635-10.257,5.03-14.889t-5.5-2.942q-4.892,1.689-12.28,10.456-3.077,3.746-4.731,5.877t-3.189,4.189q-.736.9-1.654,2.131-4.469,5.642-12.5,16.152t-15.465,20.656q-7.433,10.146-10.127,14.787-3.165,6.506-.56,10.449a7.987,7.987,0,0,0,7.706,3.63q5.1-.313,9.682-6.4Q418.581,201.405,424.859,192.223Zm47.053-9.565a18.333,18.333,0,0,0-10.053-4.573q-7.4-.395-11.687,3.752a18.882,18.882,0,0,0-5.483,8.909,15.335,15.335,0,0,0,2.441,12.693,16.556,16.556,0,0,0,10.891,7.039q6.88,1.3,13.9-5.342a14.63,14.63,0,0,0-.008-22.478Zm-54.272-55.02a16.811,16.811,0,0,0-9.2-3.333q-6.633-.082-10.455,3.407a16.407,16.407,0,0,0-5.029,7.6,12.152,12.152,0,0,0,2.111,11,15.123,15.123,0,0,0,10.473,5.985c4.442.6,8.862-1.2,13.181-5.332,3.626-3.709,4.883-7.928,3.839-12.623A13.656,13.656,0,0,0,417.64,127.637Z" transform="translate(-477.467 -276.807)" fill="#f5f5f5" opacity="0.59"/>
      <path id="_4" data-name="%" d="M424.859,192.223q6.276-9.18,12.751-18.746,7.365-11.081,10.5-15.465,1.415-1.986,2.687-3.81a125.132,125.132,0,0,0,8.915-13.6q5.635-10.257,5.03-14.889t-5.5-2.942q-4.892,1.689-12.28,10.456-3.077,3.746-4.731,5.877t-3.189,4.189q-.736.9-1.654,2.131-4.469,5.642-12.5,16.152t-15.465,20.656q-7.433,10.146-10.127,14.787-3.165,6.506-.56,10.449a7.987,7.987,0,0,0,7.706,3.63q5.1-.313,9.682-6.4Q418.581,201.405,424.859,192.223Zm47.053-9.565a18.333,18.333,0,0,0-10.053-4.573q-7.4-.395-11.687,3.752a18.882,18.882,0,0,0-5.483,8.909,15.335,15.335,0,0,0,2.441,12.693,16.556,16.556,0,0,0,10.891,7.039q6.88,1.3,13.9-5.342a14.63,14.63,0,0,0-.008-22.478Zm-54.272-55.02a16.811,16.811,0,0,0-9.2-3.333q-6.633-.082-10.455,3.407a16.407,16.407,0,0,0-5.029,7.6,12.152,12.152,0,0,0,2.111,11,15.123,15.123,0,0,0,10.473,5.985c4.442.6,8.862-1.2,13.181-5.332,3.626-3.709,4.883-7.928,3.839-12.623A13.656,13.656,0,0,0,417.64,127.637Z" transform="translate(-34.467 -106.807)" fill="#f5f5f5" opacity="0.59"/>
      <path id="_copy_2" data-name="% copy 2" d="M541.633,126.228q-10.131,3.215-25.18,21.063-6.282,7.655-9.663,12.025t-6.521,8.607q-1.509,1.842-3.39,4.384-9.179,11.621-25.746,33.4-16.646,21.875-32.144,43.164-15.557,21.368-21.209,31.241-6.607,13.871-.9,22.5t16.666,8.167a19.1,19.1,0,0,0,3.63-.518q-6.818,5.86-14.122,6.32-11.163.69-16.862-7.943t1.226-22.864q5.895-10.152,22.16-32.357t33.841-45.2q17.574-23,27.355-35.344,2.015-2.7,3.62-4.663,3.354-4.5,6.978-9.167t10.353-12.859q16.168-19.183,26.87-22.879,8.623-2.979,11.155,3.031Q546.824,124.587,541.633,126.228ZM413.007,132.8q-8.135,7.2-10.463,15.657c-2.19,8.384-.633,16.177,4.78,23.324a33.8,33.8,0,0,0,22.437,13.238,26.419,26.419,0,0,0,7.787.089,28.611,28.611,0,0,1-16.466,2.807c-9.694-1.313-17.349-5.711-22.917-13.1a26.589,26.589,0,0,1-4.62-24.078q2.491-8.872,11.005-16.623c5.546-5.062,13.083-7.526,22.646-7.449A26.31,26.31,0,0,0,413.007,132.8ZM518.735,252.555a28.481,28.481,0,0,1,13.574-7.269,25,25,0,0,0-6.785,4.7q-8.863,8.626-11.182,18.734A33.829,33.829,0,0,0,520.124,296a37.132,37.132,0,0,0,23.475,15.57,25.645,25.645,0,0,0,13.306-.746q-10.57,6.362-20.995,4.4a36.228,36.228,0,0,1-23.832-15.4,33.555,33.555,0,0,1-5.341-27.774Q509.364,261.633,518.735,252.555Z" transform="translate(-392.467 -122.319)" fill="#f5f5f5"/>
      <path id="Shape_2" data-name="Shape 2" d="M454.949,150.719A36.951,36.951,0,0,0,448,145.865L454.957,142a32.261,32.261,0,0,1,7.1,5.777Zm6.965,10.605a16.627,16.627,0,0,0-2.476-5.565l6.323-2.569c1.409,3.019,1.606,6.442.791,10.452a24.666,24.666,0,0,1-12.368,17.006S463.673,169.129,461.914,161.325Z" transform="translate(-405.073 -126.786)" fill="#f5f5f5" opacity="0.47"/>
      <path id="Shape_2_copy" data-name="Shape 2 copy" d="M605.328,304.475A40.594,40.594,0,0,0,597.8,298.1l7.538-5.077a36.887,36.887,0,0,1,7.695,7.589Zm7.547,13.931a24.354,24.354,0,0,0-2.682-7.31l6.851-3.374a25.318,25.318,0,0,1,1.782,13.11c-1.874,15-14.326,22.959-14.326,22.959S614.78,328.658,612.875,318.406Z" transform="translate(-439.079 -161.07)" fill="#f5f5f5" opacity="0.47"/>
      <path id="Shape_4" data-name="Shape 4" d="M568.169,151.864l-4.764-.353a61.829,61.829,0,0,0,2.711-5.652c5.154-12.7-1.78-11.084-1.78-11.084s13.025-5.071,6.907,10.855A49.115,49.115,0,0,1,568.169,151.864Zm-9.834,8.419h4.675c-3.875,6-8.745,13.066-14.133,20.871C521.945,220.169,511,236.036,511,236.036s-.433-4.331,25.509-42.514C545.635,180.088,553.053,168.941,558.335,160.283Z" transform="translate(-419.375 -124.972)" fill="#f5f5f5" opacity="0.47"/>
    </g>
    <g id="_5" data-name="%" transform="translate(154.31 4055)" opacity="0.48">
      <path id="_6" data-name="%" d="M463.347,275.28q13.733-20.088,27.9-41.02,16.115-24.247,22.979-33.841,3.1-4.345,5.88-8.337,8.532-10.931,19.506-29.76,12.33-22.444,11.006-32.58t-12.026-6.437q-10.7,3.7-26.87,22.879-6.733,8.2-10.353,12.859t-6.978,9.167q-1.609,1.963-3.62,4.663-9.779,12.347-27.355,35.344t-33.841,45.2q-16.265,22.2-22.16,32.357-6.927,14.236-1.226,22.864t16.862,7.943q11.162-.685,21.186-14Q449.609,295.374,463.347,275.28ZM566.305,254.35q-8.653-8.021-22-10.005-16.2-.863-25.573,8.211t-12,19.493a33.555,33.555,0,0,0,5.341,27.774,36.228,36.228,0,0,0,23.832,15.4q15.054,2.841,30.412-11.689,13.339-12.864,10.818-31.207Q574.955,262.374,566.305,254.35ZM447.549,133.957q-8.121-6.328-20.122-7.293-14.514-.18-22.876,7.454-8.5,7.756-11.005,16.623a26.589,26.589,0,0,0,4.62,24.078c5.568,7.386,13.222,11.783,22.917,13.1,9.72,1.32,19.391-2.615,28.843-11.668,7.934-8.116,10.685-17.348,8.4-27.622Q455.765,140.34,447.549,133.957Z" transform="translate(-392.467 -122.318)" fill="#f5f5f5"/>
      <path id="_7" data-name="%" d="M423.1,188.437q5.936-8.683,12.06-17.731,6.966-10.481,9.933-14.628,1.338-1.878,2.542-3.6a118.351,118.351,0,0,0,8.432-12.864q5.33-9.7,4.758-14.083t-5.2-2.782q-4.627,1.6-11.615,9.89-2.91,3.543-4.475,5.558t-3.016,3.963q-.7.849-1.565,2.016-4.227,5.337-11.824,15.278t-14.628,19.538q-7.031,9.6-9.579,13.986-2.994,6.153-.53,9.883a7.554,7.554,0,0,0,7.289,3.434q4.825-.3,9.158-6.053Q417.167,197.122,423.1,188.437Zm44.5-9.047a17.34,17.34,0,0,0-9.508-4.325q-7-.373-11.054,3.549a17.86,17.86,0,0,0-5.186,8.426,14.5,14.5,0,0,0,2.308,12.006,15.66,15.66,0,0,0,10.3,6.658q6.507,1.228,13.146-5.053a13.837,13.837,0,0,0-.008-21.261Zm-51.333-52.04a15.9,15.9,0,0,0-8.7-3.153q-6.274-.078-9.888,3.222a15.519,15.519,0,0,0-4.757,7.185,11.493,11.493,0,0,0,2,10.408,14.3,14.3,0,0,0,9.906,5.661c4.2.571,8.382-1.13,12.467-5.044,3.429-3.508,4.619-7.5,3.631-11.94A12.916,12.916,0,0,0,416.276,127.349Z" transform="translate(-150.776 -196.997)" fill="#f5f5f5" opacity="0.66"/>
      <path id="_8" data-name="%" d="M424.859,192.223q6.276-9.18,12.751-18.746,7.365-11.081,10.5-15.465,1.415-1.986,2.687-3.81a125.132,125.132,0,0,0,8.915-13.6q5.635-10.257,5.03-14.889t-5.5-2.942q-4.892,1.689-12.28,10.456-3.077,3.746-4.731,5.877t-3.189,4.189q-.736.9-1.654,2.131-4.469,5.642-12.5,16.152t-15.465,20.656q-7.433,10.146-10.127,14.787-3.165,6.506-.56,10.449a7.987,7.987,0,0,0,7.706,3.63q5.1-.313,9.682-6.4Q418.581,201.405,424.859,192.223Zm47.053-9.565a18.333,18.333,0,0,0-10.053-4.573q-7.4-.395-11.687,3.752a18.882,18.882,0,0,0-5.483,8.909,15.335,15.335,0,0,0,2.441,12.693,16.556,16.556,0,0,0,10.891,7.039q6.88,1.3,13.9-5.342a14.63,14.63,0,0,0-.008-22.478Zm-54.272-55.02a16.811,16.811,0,0,0-9.2-3.333q-6.633-.082-10.455,3.407a16.407,16.407,0,0,0-5.029,7.6,12.152,12.152,0,0,0,2.111,11,15.123,15.123,0,0,0,10.473,5.985c4.442.6,8.862-1.2,13.181-5.332,3.626-3.709,4.883-7.928,3.839-12.623A13.656,13.656,0,0,0,417.64,127.637Z" transform="translate(-477.467 -276.807)" fill="#f5f5f5" opacity="0.59"/>
      <path id="_9" data-name="%" d="M424.859,192.223q6.276-9.18,12.751-18.746,7.365-11.081,10.5-15.465,1.415-1.986,2.687-3.81a125.132,125.132,0,0,0,8.915-13.6q5.635-10.257,5.03-14.889t-5.5-2.942q-4.892,1.689-12.28,10.456-3.077,3.746-4.731,5.877t-3.189,4.189q-.736.9-1.654,2.131-4.469,5.642-12.5,16.152t-15.465,20.656q-7.433,10.146-10.127,14.787-3.165,6.506-.56,10.449a7.987,7.987,0,0,0,7.706,3.63q5.1-.313,9.682-6.4Q418.581,201.405,424.859,192.223Zm47.053-9.565a18.333,18.333,0,0,0-10.053-4.573q-7.4-.395-11.687,3.752a18.882,18.882,0,0,0-5.483,8.909,15.335,15.335,0,0,0,2.441,12.693,16.556,16.556,0,0,0,10.891,7.039q6.88,1.3,13.9-5.342a14.63,14.63,0,0,0-.008-22.478Zm-54.272-55.02a16.811,16.811,0,0,0-9.2-3.333q-6.633-.082-10.455,3.407a16.407,16.407,0,0,0-5.029,7.6,12.152,12.152,0,0,0,2.111,11,15.123,15.123,0,0,0,10.473,5.985c4.442.6,8.862-1.2,13.181-5.332,3.626-3.709,4.883-7.928,3.839-12.623A13.656,13.656,0,0,0,417.64,127.637Z" transform="translate(-34.467 -106.807)" fill="#f5f5f5" opacity="0.59"/>
      <path id="_copy_2-2" data-name="% copy 2" d="M541.633,126.228q-10.131,3.215-25.18,21.063-6.282,7.655-9.663,12.025t-6.521,8.607q-1.509,1.842-3.39,4.384-9.179,11.621-25.746,33.4-16.646,21.875-32.144,43.164-15.557,21.368-21.209,31.241-6.607,13.871-.9,22.5t16.666,8.167a19.1,19.1,0,0,0,3.63-.518q-6.818,5.86-14.122,6.32-11.163.69-16.862-7.943t1.226-22.864q5.895-10.152,22.16-32.357t33.841-45.2q17.574-23,27.355-35.344,2.015-2.7,3.62-4.663,3.354-4.5,6.978-9.167t10.353-12.859q16.168-19.183,26.87-22.879,8.623-2.979,11.155,3.031Q546.824,124.587,541.633,126.228ZM413.007,132.8q-8.135,7.2-10.463,15.657c-2.19,8.384-.633,16.177,4.78,23.324a33.8,33.8,0,0,0,22.437,13.238,26.419,26.419,0,0,0,7.787.089,28.611,28.611,0,0,1-16.466,2.807c-9.694-1.313-17.349-5.711-22.917-13.1a26.589,26.589,0,0,1-4.62-24.078q2.491-8.872,11.005-16.623c5.546-5.062,13.083-7.526,22.646-7.449A26.31,26.31,0,0,0,413.007,132.8ZM518.735,252.555a28.481,28.481,0,0,1,13.574-7.269,25,25,0,0,0-6.785,4.7q-8.863,8.626-11.182,18.734A33.829,33.829,0,0,0,520.124,296a37.132,37.132,0,0,0,23.475,15.57,25.645,25.645,0,0,0,13.306-.746q-10.57,6.362-20.995,4.4a36.228,36.228,0,0,1-23.832-15.4,33.555,33.555,0,0,1-5.341-27.774Q509.364,261.633,518.735,252.555Z" transform="translate(-392.467 -122.319)" fill="#f5f5f5"/>
      <path id="Shape_2-2" data-name="Shape 2" d="M454.949,150.719A36.951,36.951,0,0,0,448,145.865L454.957,142a32.261,32.261,0,0,1,7.1,5.777Zm6.965,10.605a16.627,16.627,0,0,0-2.476-5.565l6.323-2.569c1.409,3.019,1.606,6.442.791,10.452a24.666,24.666,0,0,1-12.368,17.006S463.673,169.129,461.914,161.325Z" transform="translate(-405.073 -126.786)" fill="#f5f5f5" opacity="0.47"/>
      <path id="Shape_2_copy-2" data-name="Shape 2 copy" d="M605.328,304.475A40.594,40.594,0,0,0,597.8,298.1l7.538-5.077a36.887,36.887,0,0,1,7.695,7.589Zm7.547,13.931a24.354,24.354,0,0,0-2.682-7.31l6.851-3.374a25.318,25.318,0,0,1,1.782,13.11c-1.874,15-14.326,22.959-14.326,22.959S614.78,328.658,612.875,318.406Z" transform="translate(-439.079 -161.07)" fill="#f5f5f5" opacity="0.47"/>
      <path id="Shape_4-2" data-name="Shape 4" d="M568.169,151.864l-4.764-.353a61.829,61.829,0,0,0,2.711-5.652c5.154-12.7-1.78-11.084-1.78-11.084s13.025-5.071,6.907,10.855A49.115,49.115,0,0,1,568.169,151.864Zm-9.834,8.419h4.675c-3.875,6-8.745,13.066-14.133,20.871C521.945,220.169,511,236.036,511,236.036s-.433-4.331,25.509-42.514C545.635,180.088,553.053,168.941,558.335,160.283Z" transform="translate(-419.375 -124.972)" fill="#f5f5f5" opacity="0.47"/>
    </g>
    <g id="_10" data-name="%" transform="translate(223 3034.396)" opacity="0.62">
      <path id="_11" data-name="%" d="M428.184,199.4q6.92-10.122,14.06-20.671,8.121-12.218,11.58-17.053,1.56-2.189,2.963-4.2a137.975,137.975,0,0,0,9.83-15q6.214-11.31,5.546-16.418t-6.06-3.244q-5.394,1.862-13.54,11.529-3.393,4.131-5.217,6.48t-3.516,4.619q-.811.989-1.824,2.35-4.928,6.222-13.785,17.81t-17.053,22.777q-8.2,11.188-11.167,16.305-3.49,7.174-.618,11.521a8.807,8.807,0,0,0,8.5,4q5.625-.345,10.676-7.057Q421.261,209.523,428.184,199.4Zm51.882-10.547a20.215,20.215,0,0,0-11.085-5.042q-8.164-.435-12.887,4.137a20.82,20.82,0,0,0-6.046,9.823,16.909,16.909,0,0,0,2.691,14,18.256,18.256,0,0,0,12.009,7.761q7.586,1.432,15.325-5.89a16.131,16.131,0,0,0-.009-24.785Zm-59.843-60.668a18.536,18.536,0,0,0-10.14-3.675q-7.314-.091-11.528,3.756a18.092,18.092,0,0,0-5.546,8.377,13.4,13.4,0,0,0,2.328,12.133,16.675,16.675,0,0,0,11.548,6.6c4.9.665,9.772-1.318,14.534-5.88,4-4.09,5.384-8.742,4.233-13.919A15.058,15.058,0,0,0,420.224,128.183Z" transform="translate(-392.467 -122.318)" fill="#f5f5f5"/>
      <path id="_copy_2-3" data-name="% copy 2" d="M467.634,124.289q-5.105,1.62-12.689,10.614-3.166,3.858-4.869,6.06T446.79,145.3q-.76.928-1.708,2.209-4.625,5.856-12.974,16.828-8.388,11.023-16.2,21.751-7.84,10.768-10.688,15.743-3.329,6.99-.453,11.34a8.939,8.939,0,0,0,8.4,4.116,9.623,9.623,0,0,0,1.829-.261,12.025,12.025,0,0,1-7.116,3.185,8.807,8.807,0,0,1-8.5-4q-2.874-4.348.618-11.521,2.97-5.116,11.167-16.305t17.053-22.777q8.856-11.588,13.785-17.81,1.015-1.362,1.824-2.35,1.69-2.268,3.516-4.619t5.217-6.48q8.147-9.667,13.54-11.529,4.345-1.5,5.621,1.527Q470.25,123.462,467.634,124.289ZM402.817,127.6a16.42,16.42,0,0,0-5.273,7.89,13.1,13.1,0,0,0,2.409,11.753,17.035,17.035,0,0,0,11.306,6.671,13.313,13.313,0,0,0,3.924.045,14.418,14.418,0,0,1-8.3,1.414,16.675,16.675,0,0,1-11.548-6.6,13.4,13.4,0,0,1-2.328-12.133,18.092,18.092,0,0,1,5.546-8.377c2.795-2.551,6.593-3.792,11.412-3.754A13.258,13.258,0,0,0,402.817,127.6ZM456.1,187.947a14.352,14.352,0,0,1,6.84-3.663,12.6,12.6,0,0,0-3.419,2.369,19.171,19.171,0,0,0-5.635,9.44A17.047,17.047,0,0,0,456.8,209.84a18.711,18.711,0,0,0,11.829,7.846,12.923,12.923,0,0,0,6.705-.376,14.761,14.761,0,0,1-10.58,2.217,18.256,18.256,0,0,1-12.009-7.761,16.909,16.909,0,0,1-2.691-14A20.82,20.82,0,0,1,456.1,187.947Z" transform="translate(-392.467 -122.319)" fill="#f5f5f5"/>
      <path id="Shape_2-3" data-name="Shape 2" d="M451.5,146.394a18.621,18.621,0,0,0-3.5-2.446L451.506,142a16.257,16.257,0,0,1,3.579,2.911Zm3.51,5.344a8.378,8.378,0,0,0-1.248-2.8l3.186-1.294a8.237,8.237,0,0,1,.4,5.267,12.429,12.429,0,0,1-6.232,8.569S455.9,155.671,455.011,151.738Z" transform="translate(-426.368 -134.334)" fill="#f5f5f5" opacity="0.47"/>
      <path id="Shape_2_copy-3" data-name="Shape 2 copy" d="M601.593,298.793a20.458,20.458,0,0,0-3.794-3.213l3.8-2.558a18.589,18.589,0,0,1,3.878,3.824Zm3.8,7.02a12.274,12.274,0,0,0-1.352-3.684l3.452-1.7a12.758,12.758,0,0,1,.9,6.606c-.944,7.557-7.219,11.569-7.219,11.569S606.356,310.979,605.4,305.813Z" transform="translate(-517.818 -226.529)" fill="#f5f5f5" opacity="0.47"/>
      <path id="Shape_4-3" data-name="Shape 4" d="M539.808,143.005l-2.4-.178a31.159,31.159,0,0,0,1.366-2.848c2.6-6.4-.9-5.586-.9-5.586s6.564-2.555,3.48,5.47A24.761,24.761,0,0,1,539.808,143.005Zm-4.955,4.243h2.356c-1.952,3.022-4.407,6.584-7.122,10.517C516.515,177.425,511,185.421,511,185.421s-.218-2.183,12.854-21.424C528.453,157.228,532.191,151.611,534.852,147.248Z" transform="translate(-464.828 -129.454)" fill="#f5f5f5" opacity="0.47"/>
    </g>
    <g id="_12" data-name="%" transform="translate(0 3413.968)" opacity="0.4">
      <path id="_13" data-name="%" d="M410.467,161.163q3.487-5.1,7.085-10.417,4.093-6.157,5.836-8.594.786-1.1,1.493-2.117a69.533,69.533,0,0,0,4.954-7.558q3.131-5.7,2.8-8.274t-3.054-1.635q-2.718.939-6.824,5.81-1.71,2.082-2.629,3.266t-1.772,2.328q-.409.5-.919,1.184-2.483,3.135-6.947,8.976t-8.594,11.478q-4.13,5.638-5.628,8.217-1.759,3.615-.311,5.806a4.438,4.438,0,0,0,4.282,2.017q2.835-.174,5.38-3.556Q406.978,166.266,410.467,161.163Zm26.146-5.315a10.187,10.187,0,0,0-5.586-2.541,8.269,8.269,0,0,0-6.494,2.085,10.493,10.493,0,0,0-3.047,4.95,8.521,8.521,0,0,0,1.356,7.053,9.2,9.2,0,0,0,6.052,3.911q3.823.721,7.723-2.968a8.13,8.13,0,0,0,0-12.491Zm-30.158-30.574a9.342,9.342,0,0,0-5.11-1.852,8.124,8.124,0,0,0-5.809,1.893,9.118,9.118,0,0,0-2.795,4.221,6.752,6.752,0,0,0,1.173,6.115,8.4,8.4,0,0,0,5.82,3.326c2.468.335,4.924-.664,7.325-2.963A7.275,7.275,0,0,0,409.192,129,7.588,7.588,0,0,0,406.455,125.274Z" transform="translate(-392.467 -122.318)" fill="#f5f5f5"/>
      <path id="_copy_2-4" data-name="% copy 2" d="M430.347,123.313q-2.573.816-6.395,5.349-1.6,1.944-2.454,3.054t-1.656,2.186q-.383.468-.861,1.113-2.331,2.951-6.538,8.481-4.227,5.555-8.163,10.962-3.951,5.426-5.386,7.934-1.678,3.523-.228,5.715a4.5,4.5,0,0,0,4.232,2.074,4.851,4.851,0,0,0,.922-.131,6.06,6.06,0,0,1-3.586,1.605,4.438,4.438,0,0,1-4.282-2.017q-1.448-2.191.311-5.806,1.5-2.578,5.628-8.217t8.594-11.478q4.463-5.84,6.947-8.976.512-.686.919-1.184.852-1.143,1.772-2.328t2.629-3.266q4.106-4.872,6.824-5.81,2.19-.757,2.833.77A2.505,2.505,0,0,0,430.347,123.313Zm-32.664,1.669a8.275,8.275,0,0,0-2.657,3.976,6.6,6.6,0,0,0,1.214,5.923,8.585,8.585,0,0,0,5.7,3.362,6.708,6.708,0,0,0,1.978.022,7.266,7.266,0,0,1-4.181.713,8.4,8.4,0,0,1-5.82-3.326,6.752,6.752,0,0,1-1.173-6.115,9.118,9.118,0,0,1,2.795-4.221,8.1,8.1,0,0,1,5.751-1.892A6.682,6.682,0,0,0,397.683,124.982Zm26.85,30.412a7.233,7.233,0,0,1,3.447-1.846,6.349,6.349,0,0,0-1.723,1.194,9.661,9.661,0,0,0-2.84,4.758,8.591,8.591,0,0,0,1.468,6.928,9.43,9.43,0,0,0,5.961,3.954,6.513,6.513,0,0,0,3.379-.189,7.439,7.439,0,0,1-5.332,1.117,9.2,9.2,0,0,1-6.052-3.911,8.521,8.521,0,0,1-1.356-7.053A10.493,10.493,0,0,1,424.532,155.393Z" transform="translate(-392.467 -122.32)" fill="#f5f5f5"/>
      <path id="Shape_2-4" data-name="Shape 2" d="M449.765,144.214A9.385,9.385,0,0,0,448,142.982l1.767-.982a8.193,8.193,0,0,1,1.8,1.467Zm1.769,2.693a4.222,4.222,0,0,0-.629-1.413l1.606-.652a4.151,4.151,0,0,1,.2,2.654,6.264,6.264,0,0,1-3.141,4.319S451.98,148.889,451.533,146.908Z" transform="translate(-437.099 -138.136)" fill="#f5f5f5" opacity="0.47"/>
      <path id="Shape_2_copy-4" data-name="Shape 2 copy" d="M599.711,295.93a10.31,10.31,0,0,0-1.912-1.619l1.914-1.289a9.368,9.368,0,0,1,1.954,1.927Zm1.916,3.538a6.188,6.188,0,0,0-.681-1.856l1.74-.857a6.43,6.43,0,0,1,.453,3.329,8.753,8.753,0,0,1-3.638,5.83S602.111,302.071,601.628,299.468Z" transform="translate(-557.492 -259.512)" fill="#f5f5f5" opacity="0.47"/>
      <path id="Shape_4-4" data-name="Shape 4" d="M525.518,138.542l-1.21-.09a15.7,15.7,0,0,0,.689-1.435c1.309-3.225-.452-2.815-.452-2.815s3.308-1.288,1.754,2.757A12.471,12.471,0,0,1,525.518,138.542Zm-2.5,2.138h1.187c-.984,1.523-2.221,3.318-3.589,5.3-6.839,9.908-9.619,13.937-9.619,13.937s-.11-1.1,6.478-10.8C519.8,145.709,521.679,142.879,523.02,140.68Z" transform="translate(-487.731 -131.712)" fill="#f5f5f5" opacity="0.47"/>
    </g>
    <g id="_14" data-name="%" transform="translate(86 2839.133)" opacity="0.29">
      <path id="_15" data-name="%" d="M443.6,232.667q9.907-14.492,20.128-29.593,11.626-17.492,16.578-24.413,2.233-3.134,4.242-6.014a197.511,197.511,0,0,0,14.072-21.469q8.9-16.191,7.94-23.5t-8.676-4.644q-7.722,2.666-19.384,16.505-4.857,5.914-7.469,9.277T466,155.426q-1.161,1.416-2.612,3.364-7.055,8.907-19.734,25.5T419.239,216.9q-11.734,16.017-15.987,23.343-5,10.27-.884,16.494t12.165,5.73q8.052-.494,15.284-10.1Q433.69,247.163,443.6,232.667Zm74.276-15.1a28.94,28.94,0,0,0-15.869-7.218q-11.688-.623-18.449,5.923T474.9,230.336a24.207,24.207,0,0,0,3.853,20.037,26.135,26.135,0,0,0,17.193,11.111q10.86,2.049,21.94-8.432a23.094,23.094,0,0,0-.013-35.483ZM432.2,130.715a26.537,26.537,0,0,0-14.516-5.261q-10.471-.13-16.5,5.377-6.131,5.6-7.939,11.992a19.182,19.182,0,0,0,3.333,17.37,23.872,23.872,0,0,0,16.532,9.448c7.012.952,13.989-1.886,20.807-8.418,5.724-5.855,7.708-12.515,6.061-19.927A21.557,21.557,0,0,0,432.2,130.715Z" transform="translate(-392.467 -122.318)" fill="#f5f5f5"/>
      <path id="_copy_2-5" data-name="% copy 2" d="M500.077,125.139q-7.309,2.319-18.166,15.2-4.532,5.523-6.971,8.675t-4.7,6.209q-1.089,1.329-2.446,3.162-6.622,8.384-18.574,24.092-12.008,15.781-23.189,31.139-11.223,15.415-15.3,22.538-4.766,10.007-.648,16.234t12.023,5.892a13.779,13.779,0,0,0,2.619-.373,17.214,17.214,0,0,1-10.188,4.56q-8.053.5-12.165-5.73t.884-16.494q4.252-7.324,15.987-23.343t24.413-32.607q12.678-16.59,19.734-25.5,1.453-1.95,2.612-3.364,2.42-3.247,5.034-6.613t7.469-9.277q11.664-13.839,19.384-16.505,6.221-2.149,8.047,2.186Q503.823,123.955,500.077,125.139Zm-92.792,4.742q-5.869,5.2-7.548,11.3A18.752,18.752,0,0,0,403.185,158a24.387,24.387,0,0,0,16.186,9.55,19.058,19.058,0,0,0,5.618.064,20.641,20.641,0,0,1-11.879,2.025,23.872,23.872,0,0,1-16.532-9.448,19.182,19.182,0,0,1-3.333-17.37q1.8-6.4,7.939-11.992c4-3.651,9.438-5.429,16.338-5.374A18.981,18.981,0,0,0,407.285,129.881Zm76.273,86.393a20.547,20.547,0,0,1,9.792-5.244,18.038,18.038,0,0,0-4.895,3.391,27.446,27.446,0,0,0-8.067,13.515,24.405,24.405,0,0,0,4.172,19.681A26.788,26.788,0,0,0,501.5,258.848a18.5,18.5,0,0,0,9.6-.538q-7.625,4.589-15.146,3.174a26.135,26.135,0,0,1-17.193-11.111,24.207,24.207,0,0,1-3.853-20.037Q476.8,222.822,483.558,216.274Z" transform="translate(-392.467 -122.319)" fill="#f5f5f5"/>
      <path id="Shape_2-5" data-name="Shape 2" d="M453.013,148.29a26.663,26.663,0,0,0-5.013-3.5L453.019,142a23.273,23.273,0,0,1,5.124,4.168Zm5.025,7.651a11.991,11.991,0,0,0-1.786-4.014l4.562-1.853a11.794,11.794,0,0,1,.57,7.54,17.8,17.8,0,0,1-8.922,12.268S459.306,161.571,458.038,155.941Z" transform="translate(-417.032 -131.025)" fill="#f5f5f5" opacity="0.47"/>
      <path id="Shape_2_copy-5" data-name="Shape 2 copy" d="M603.231,301.284a29.287,29.287,0,0,0-5.432-4.6l5.438-3.663a26.614,26.614,0,0,1,5.551,5.475Zm5.444,10.05a17.578,17.578,0,0,0-1.935-5.273l4.942-2.434a18.266,18.266,0,0,1,1.286,9.458c-1.352,10.819-10.335,16.563-10.335,16.563S610.05,318.73,608.675,311.334Z" transform="translate(-483.296 -197.829)" fill="#f5f5f5" opacity="0.47"/>
      <path id="Shape_4-5" data-name="Shape 4" d="M552.242,146.889l-3.437-.255a44.584,44.584,0,0,0,1.956-4.077c3.718-9.162-1.284-8-1.284-8s9.4-3.658,4.982,7.831A35.41,35.41,0,0,1,552.242,146.889Zm-7.094,6.074h3.372c-2.8,4.326-6.309,9.426-10.2,15.057C518.9,196.165,511,207.612,511,207.612s-.312-3.125,18.4-30.671C535.986,167.251,541.338,159.209,545.148,152.963Z" transform="translate(-444.9 -127.489)" fill="#f5f5f5" opacity="0.47"/>
    </g>
  </g>
</svg>

